<svg width="87" height="45" viewBox="0 0 87 45" fill="none" xmlns="http://www.w3.org/2000/svg">
<path d="M32 30.5C21.2 30.5 15.1667 20.8333 13.5 16C13.5 12.6667 13.3 6 12.5 6C11.5 6 4 9 0 11.5C3.2 12.7 7 18.3333 8.5 21C12 27.8333 23.4544 39.4999 29.5 43C39 48.5 74.4322 40.8968 82 36C90.5 30.5 85.3333 24.5 85 21C84.1667 19 81.2 14 76 9.99998C70.8 5.99998 62.8333 11 59.5 14C54.8333 19.5 42.8 30.5 32 30.5Z" fill="#4370d1"/>
<path d="M64.0833 7.65708C64.0578 7.78157 64.0296 7.89656 64 8.00001C64.0259 7.89632 64.0539 7.78154 64.0833 7.65708C64.3459 6.3776 64.3227 4.0936 62.5 3.00001C60.5 1.80001 60.6667 0.833342 61 0.500009C62.3333 9.0003e-06 65 -0.499991 65 1.50001C65 3.34447 64.433 6.18119 64.0833 7.65708Z" fill="#98B5FF"/>
<circle cx="72.5" cy="23.5" r="1.5" fill="white"/>
<path d="M59 7.49997C56.4999 7.49996 54.1667 3.39032 55.5 3.22365C57.5202 2.02365 58 2 60 3.22365L61.4999 7.49996V10.5C58.9999 9.49998 61.5612 7.49999 59 7.49997Z" fill="#98B5FF"/>
<circle cx="72.5" cy="23.5" r="0.5" fill="black"/>
</svg>
